<svg width="186" height="36" viewBox="0 0 186 36" fill="none" xmlns="http://www.w3.org/2000/svg">
<path d="M104.038 6.32074C107.503 6.32074 109.783 7.07114 111.562 8.38082C114.246 10.3791 115.901 13.6252 115.901 17.2479C115.901 20.8706 114.246 24.1167 111.562 26.1149C109.783 27.4274 107.503 28.175 104.038 28.175H97.1693V6.32074H104.038ZM110.095 12.501C108.878 10.9721 107.096 10.0643 104.505 10.0643H101.382V24.4258H104.505C107.096 24.4258 108.875 23.5208 110.095 21.9919C111.095 20.7441 111.685 19.0578 111.685 17.2451C111.688 15.4379 111.095 13.7516 110.095 12.501Z" fill="#FF323C"/>
<path d="M141.128 27.3318C141.128 30.0496 140.659 31.3059 139.754 32.5846C138.379 34.4901 135.945 35.6143 133.042 35.6143C130.077 35.6143 127.267 34.24 125.766 32.4919L128.326 29.8388C129.138 30.7128 130.544 32.0253 133.042 32.0253C134.355 32.0253 135.445 31.6178 136.134 30.8084C136.758 30.1198 137.07 29.1839 137.07 27.2475V27.1154C135.853 28.0513 134.54 28.4898 133.011 28.4898C130.763 28.4898 128.61 27.492 127.267 25.9294C126.081 24.5551 125.361 22.6833 125.361 20.6204C125.361 16.1546 128.672 12.7202 132.792 12.7202C134.509 12.7202 136.038 13.2823 137.227 14.2491V13.0321H141.128V27.3318ZM137.07 18.3411C136.227 17.2169 134.883 16.4694 133.323 16.4694C130.951 16.4694 129.42 18.4367 129.42 20.6232C129.42 22.9953 131.137 24.7434 133.416 24.7434C134.945 24.7434 136.288 23.993 137.07 22.8688V18.3411V18.3411Z" fill="#FF323C"/>
<path d="M146.718 5.98911C148.092 5.98911 149.202 7.04022 149.202 8.41454C149.202 9.78887 148.092 10.84 146.718 10.84C145.344 10.84 144.234 9.78887 144.234 8.41454C144.234 7.04022 145.344 5.98911 146.718 5.98911ZM148.747 28.175H144.689V13.0322H148.747V28.175Z" fill="#FF323C"/>
<path d="M120.648 5.98911C122.022 5.98911 123.132 7.04022 123.132 8.41454C123.132 9.78887 122.022 10.84 120.648 10.84C119.274 10.84 118.164 9.78887 118.164 8.41454C118.164 7.04022 119.274 5.98911 120.648 5.98911ZM122.677 28.175H118.619V13.0322H122.677V28.175Z" fill="#FF323C"/>
<path d="M161.206 28.175C160.675 28.3633 159.458 28.4869 158.677 28.4869C156.243 28.4869 154.461 27.6747 153.432 26.3004C152.651 25.269 152.308 23.9284 152.308 21.7727V16.4665V13.0321V8.81644H156.366V13.0321H160.605V16.4665H156.366V22.2421C156.366 23.178 156.521 23.7401 156.867 24.1476C157.271 24.6169 157.929 24.8952 158.927 24.8952C159.52 24.8952 160.301 24.8024 160.582 24.7378L161.206 28.175Z" fill="#FF323C"/>
<path d="M178.378 28.175H174.474V26.958C173.226 28.0204 171.79 28.4869 170.259 28.4869C168.01 28.4869 165.888 27.4892 164.545 25.9266C163.359 24.5523 162.608 22.6777 162.608 20.6176C162.608 16.1518 165.916 12.7174 170.039 12.7174C171.756 12.7174 173.285 13.2795 174.471 14.2463V13.0293H178.375V28.175H178.378ZM174.32 18.3411C173.476 17.2169 172.133 16.4694 170.573 16.4694C168.201 16.4694 166.67 18.4367 166.67 20.6232C166.67 22.9953 168.387 24.7434 170.666 24.7434C172.195 24.7434 173.538 23.993 174.32 22.8716V18.3411Z" fill="#FF323C"/>
<path d="M186 28.175H181.939V6.32074H185.997L186 28.175Z" fill="#FF323C"/>
<path d="M90.8486 0H0V34.4958H90.8486V0Z" fill="#FF323C"/>
<path d="M56.3528 28.175H51.0607L39.7879 14.9517V28.175H34.4986V6.32074H39.7879L51.0607 19.53V6.32074H56.3528V28.175Z" fill="white"/>
<path d="M73.6007 6.32074H62.6708V11.6129H65.4588V22.8857H62.6708V28.1778H73.6007C79.6264 28.1778 84.5278 23.2763 84.5278 17.2507C84.5278 11.2222 79.6264 6.32074 73.6007 6.32074ZM73.6007 22.8829H70.7509V11.6101H73.6007C76.7091 11.6101 79.2357 14.1395 79.2357 17.2451C79.2385 20.3562 76.7091 22.8829 73.6007 22.8829Z" fill="white"/>
<path d="M17.2507 6.32074C11.225 6.32074 6.32355 11.2222 6.32355 17.2479V28.1778H11.6157V25.3898H22.8885V28.1778H28.1806V17.2479C28.1778 11.2222 23.2763 6.32074 17.2507 6.32074ZM22.8857 20.0949H11.6129V17.2451C11.6129 14.1367 14.1423 11.6101 17.2479 11.6101C20.3562 11.6101 22.8829 14.1367 22.8829 17.2451L22.8857 20.0949Z" fill="white"/>
</svg>
